<svg width="409" height="161" viewBox="0 0 409 161" fill="none" xmlns="http://www.w3.org/2000/svg">
<path d="M9.72656 31.5L16.2422 10.6406H19.1016L18.5391 14.7891L11.9062 36H9.11719L9.72656 31.5ZM5.34375 10.6406L10.8984 31.7344L11.2969 36H8.36719L1.00781 10.6406H5.34375ZM25.3359 31.5703L30.6328 10.6406H34.9453L27.5859 36H24.6797L25.3359 31.5703ZM19.7344 10.6406L26.1094 31.1484L26.8359 36H24.0703L17.25 14.7422L16.6875 10.6406H19.7344ZM49.9219 36.4688C48.1562 36.4688 46.5547 36.1719 45.1172 35.5781C43.6953 34.9688 42.4688 34.1172 41.4375 33.0234C40.4219 31.9297 39.6406 30.6328 39.0938 29.1328C38.5469 27.6328 38.2734 25.9922 38.2734 24.2109V23.2266C38.2734 21.1641 38.5781 19.3281 39.1875 17.7188C39.7969 16.0938 40.625 14.7188 41.6719 13.5938C42.7188 12.4688 43.9062 11.6172 45.2344 11.0391C46.5625 10.4609 47.9375 10.1719 49.3594 10.1719C51.1719 10.1719 52.7344 10.4844 54.0469 11.1094C55.375 11.7344 56.4609 12.6094 57.3047 13.7344C58.1484 14.8438 58.7734 16.1562 59.1797 17.6719C59.5859 19.1719 59.7891 20.8125 59.7891 22.5938V24.5391H40.8516V21H55.4531V20.6719C55.3906 19.5469 55.1562 18.4531 54.75 17.3906C54.3594 16.3281 53.7344 15.4531 52.875 14.7656C52.0156 14.0781 50.8438 13.7344 49.3594 13.7344C48.375 13.7344 47.4688 13.9453 46.6406 14.3672C45.8125 14.7734 45.1016 15.3828 44.5078 16.1953C43.9141 17.0078 43.4531 18 43.125 19.1719C42.7969 20.3438 42.6328 21.6953 42.6328 23.2266V24.2109C42.6328 25.4141 42.7969 26.5469 43.125 27.6094C43.4688 28.6562 43.9609 29.5781 44.6016 30.375C45.2578 31.1719 46.0469 31.7969 46.9688 32.25C47.9062 32.7031 48.9688 32.9297 50.1562 32.9297C51.6875 32.9297 52.9844 32.6172 54.0469 31.9922C55.1094 31.3672 56.0391 30.5312 56.8359 29.4844L59.4609 31.5703C58.9141 32.3984 58.2188 33.1875 57.375 33.9375C56.5312 34.6875 55.4922 35.2969 54.2578 35.7656C53.0391 36.2344 51.5938 36.4688 49.9219 36.4688ZM81.0703 15.6797V36H76.7109V10.6406H80.8359L81.0703 15.6797ZM80.1797 22.3594L78.1641 22.2891C78.1797 20.5547 78.4062 18.9531 78.8438 17.4844C79.2812 16 79.9297 14.7109 80.7891 13.6172C81.6484 12.5234 82.7188 11.6797 84 11.0859C85.2812 10.4766 86.7656 10.1719 88.4531 10.1719C89.6406 10.1719 90.7344 10.3438 91.7344 10.6875C92.7344 11.0156 93.6016 11.5391 94.3359 12.2578C95.0703 12.9766 95.6406 13.8984 96.0469 15.0234C96.4531 16.1484 96.6562 17.5078 96.6562 19.1016V36H92.3203V19.3125C92.3203 17.9844 92.0938 16.9219 91.6406 16.125C91.2031 15.3281 90.5781 14.75 89.7656 14.3906C88.9531 14.0156 88 13.8281 86.9062 13.8281C85.625 13.8281 84.5547 14.0547 83.6953 14.5078C82.8359 14.9609 82.1484 15.5859 81.6328 16.3828C81.1172 17.1797 80.7422 18.0938 80.5078 19.125C80.2891 20.1406 80.1797 21.2188 80.1797 22.3594ZM96.6094 19.9688L93.7031 20.8594C93.7188 19.4688 93.9453 18.1328 94.3828 16.8516C94.8359 15.5703 95.4844 14.4297 96.3281 13.4297C97.1875 12.4297 98.2422 11.6406 99.4922 11.0625C100.742 10.4688 102.172 10.1719 103.781 10.1719C105.141 10.1719 106.344 10.3516 107.391 10.7109C108.453 11.0703 109.344 11.625 110.062 12.375C110.797 13.1094 111.352 14.0547 111.727 15.2109C112.102 16.3672 112.289 17.7422 112.289 19.3359V36H107.93V19.2891C107.93 17.8672 107.703 16.7656 107.25 15.9844C106.812 15.1875 106.188 14.6328 105.375 14.3203C104.578 13.9922 103.625 13.8281 102.516 13.8281C101.562 13.8281 100.719 13.9922 99.9844 14.3203C99.25 14.6484 98.6328 15.1016 98.1328 15.6797C97.6328 16.2422 97.25 16.8906 96.9844 17.625C96.7344 18.3594 96.6094 19.1406 96.6094 19.9688ZM133.805 31.6641V18.6094C133.805 17.6094 133.602 16.7422 133.195 16.0078C132.805 15.2578 132.211 14.6797 131.414 14.2734C130.617 13.8672 129.633 13.6641 128.461 13.6641C127.367 13.6641 126.406 13.8516 125.578 14.2266C124.766 14.6016 124.125 15.0938 123.656 15.7031C123.203 16.3125 122.977 16.9688 122.977 17.6719H118.641C118.641 16.7656 118.875 15.8672 119.344 14.9766C119.812 14.0859 120.484 13.2812 121.359 12.5625C122.25 11.8281 123.312 11.25 124.547 10.8281C125.797 10.3906 127.188 10.1719 128.719 10.1719C130.562 10.1719 132.188 10.4844 133.594 11.1094C135.016 11.7344 136.125 12.6797 136.922 13.9453C137.734 15.1953 138.141 16.7656 138.141 18.6562V30.4688C138.141 31.3125 138.211 32.2109 138.352 33.1641C138.508 34.1172 138.734 34.9375 139.031 35.625V36H134.508C134.289 35.5 134.117 34.8359 133.992 34.0078C133.867 33.1641 133.805 32.3828 133.805 31.6641ZM134.555 20.625L134.602 23.6719H130.219C128.984 23.6719 127.883 23.7734 126.914 23.9766C125.945 24.1641 125.133 24.4531 124.477 24.8438C123.82 25.2344 123.32 25.7266 122.977 26.3203C122.633 26.8984 122.461 27.5781 122.461 28.3594C122.461 29.1562 122.641 29.8828 123 30.5391C123.359 31.1953 123.898 31.7188 124.617 32.1094C125.352 32.4844 126.25 32.6719 127.312 32.6719C128.641 32.6719 129.812 32.3906 130.828 31.8281C131.844 31.2656 132.648 30.5781 133.242 29.7656C133.852 28.9531 134.18 28.1641 134.227 27.3984L136.078 29.4844C135.969 30.1406 135.672 30.8672 135.188 31.6641C134.703 32.4609 134.055 33.2266 133.242 33.9609C132.445 34.6797 131.492 35.2812 130.383 35.7656C129.289 36.2344 128.055 36.4688 126.68 36.4688C124.961 36.4688 123.453 36.1328 122.156 35.4609C120.875 34.7891 119.875 33.8906 119.156 32.7656C118.453 31.625 118.102 30.3516 118.102 28.9453C118.102 27.5859 118.367 26.3906 118.898 25.3594C119.43 24.3125 120.195 23.4453 121.195 22.7578C122.195 22.0547 123.398 21.5234 124.805 21.1641C126.211 20.8047 127.781 20.625 129.516 20.625H134.555ZM149.32 0V36H144.961V0H149.32ZM164.812 10.6406L153.75 22.4766L147.562 28.8984L147.211 24.2812L151.641 18.9844L159.516 10.6406H164.812ZM160.852 36L151.805 23.9062L154.055 20.0391L165.961 36H160.852ZM179.344 36.4688C177.578 36.4688 175.977 36.1719 174.539 35.5781C173.117 34.9688 171.891 34.1172 170.859 33.0234C169.844 31.9297 169.062 30.6328 168.516 29.1328C167.969 27.6328 167.695 25.9922 167.695 24.2109V23.2266C167.695 21.1641 168 19.3281 168.609 17.7188C169.219 16.0938 170.047 14.7188 171.094 13.5938C172.141 12.4688 173.328 11.6172 174.656 11.0391C175.984 10.4609 177.359 10.1719 178.781 10.1719C180.594 10.1719 182.156 10.4844 183.469 11.1094C184.797 11.7344 185.883 12.6094 186.727 13.7344C187.57 14.8438 188.195 16.1562 188.602 17.6719C189.008 19.1719 189.211 20.8125 189.211 22.5938V24.5391H170.273V21H184.875V20.6719C184.812 19.5469 184.578 18.4531 184.172 17.3906C183.781 16.3281 183.156 15.4531 182.297 14.7656C181.438 14.0781 180.266 13.7344 178.781 13.7344C177.797 13.7344 176.891 13.9453 176.062 14.3672C175.234 14.7734 174.523 15.3828 173.93 16.1953C173.336 17.0078 172.875 18 172.547 19.1719C172.219 20.3438 172.055 21.6953 172.055 23.2266V24.2109C172.055 25.4141 172.219 26.5469 172.547 27.6094C172.891 28.6562 173.383 29.5781 174.023 30.375C174.68 31.1719 175.469 31.7969 176.391 32.25C177.328 32.7031 178.391 32.9297 179.578 32.9297C181.109 32.9297 182.406 32.6172 183.469 31.9922C184.531 31.3672 185.461 30.5312 186.258 29.4844L188.883 31.5703C188.336 32.3984 187.641 33.1875 186.797 33.9375C185.953 34.6875 184.914 35.2969 183.68 35.7656C182.461 36.2344 181.016 36.4688 179.344 36.4688ZM210.891 10.6406V36H206.531V10.6406H210.891ZM206.203 3.91406C206.203 3.21094 206.414 2.61719 206.836 2.13281C207.273 1.64844 207.914 1.40625 208.758 1.40625C209.586 1.40625 210.219 1.64844 210.656 2.13281C211.109 2.61719 211.336 3.21094 211.336 3.91406C211.336 4.58594 211.109 5.16406 210.656 5.64844C210.219 6.11719 209.586 6.35156 208.758 6.35156C207.914 6.35156 207.273 6.11719 206.836 5.64844C206.414 5.16406 206.203 4.58594 206.203 3.91406ZM228 32.9062C229.031 32.9062 229.984 32.6953 230.859 32.2734C231.734 31.8516 232.453 31.2734 233.016 30.5391C233.578 29.7891 233.898 28.9375 233.977 27.9844H238.102C238.023 29.4844 237.516 30.8828 236.578 32.1797C235.656 33.4609 234.445 34.5 232.945 35.2969C231.445 36.0781 229.797 36.4688 228 36.4688C226.094 36.4688 224.43 36.1328 223.008 35.4609C221.602 34.7891 220.43 33.8672 219.492 32.6953C218.57 31.5234 217.875 30.1797 217.406 28.6641C216.953 27.1328 216.727 25.5156 216.727 23.8125V22.8281C216.727 21.125 216.953 19.5156 217.406 18C217.875 16.4688 218.57 15.1172 219.492 13.9453C220.43 12.7734 221.602 11.8516 223.008 11.1797C224.43 10.5078 226.094 10.1719 228 10.1719C229.984 10.1719 231.719 10.5781 233.203 11.3906C234.688 12.1875 235.852 13.2812 236.695 14.6719C237.555 16.0469 238.023 17.6094 238.102 19.3594H233.977C233.898 18.3125 233.602 17.3672 233.086 16.5234C232.586 15.6797 231.898 15.0078 231.023 14.5078C230.164 13.9922 229.156 13.7344 228 13.7344C226.672 13.7344 225.555 14 224.648 14.5312C223.758 15.0469 223.047 15.75 222.516 16.6406C222 17.5156 221.625 18.4922 221.391 19.5703C221.172 20.6328 221.062 21.7188 221.062 22.8281V23.8125C221.062 24.9219 221.172 26.0156 221.391 27.0938C221.609 28.1719 221.977 29.1484 222.492 30.0234C223.023 30.8984 223.734 31.6016 224.625 32.1328C225.531 32.6484 226.656 32.9062 228 32.9062ZM253.5 36.4688C251.734 36.4688 250.133 36.1719 248.695 35.5781C247.273 34.9688 246.047 34.1172 245.016 33.0234C244 31.9297 243.219 30.6328 242.672 29.1328C242.125 27.6328 241.852 25.9922 241.852 24.2109V23.2266C241.852 21.1641 242.156 19.3281 242.766 17.7188C243.375 16.0938 244.203 14.7188 245.25 13.5938C246.297 12.4688 247.484 11.6172 248.812 11.0391C250.141 10.4609 251.516 10.1719 252.938 10.1719C254.75 10.1719 256.312 10.4844 257.625 11.1094C258.953 11.7344 260.039 12.6094 260.883 13.7344C261.727 14.8438 262.352 16.1562 262.758 17.6719C263.164 19.1719 263.367 20.8125 263.367 22.5938V24.5391H244.43V21H259.031V20.6719C258.969 19.5469 258.734 18.4531 258.328 17.3906C257.938 16.3281 257.312 15.4531 256.453 14.7656C255.594 14.0781 254.422 13.7344 252.938 13.7344C251.953 13.7344 251.047 13.9453 250.219 14.3672C249.391 14.7734 248.68 15.3828 248.086 16.1953C247.492 17.0078 247.031 18 246.703 19.1719C246.375 20.3438 246.211 21.6953 246.211 23.2266V24.2109C246.211 25.4141 246.375 26.5469 246.703 27.6094C247.047 28.6562 247.539 29.5781 248.18 30.375C248.836 31.1719 249.625 31.7969 250.547 32.25C251.484 32.7031 252.547 32.9297 253.734 32.9297C255.266 32.9297 256.562 32.6172 257.625 31.9922C258.688 31.3672 259.617 30.5312 260.414 29.4844L263.039 31.5703C262.492 32.3984 261.797 33.1875 260.953 33.9375C260.109 34.6875 259.07 35.2969 257.836 35.7656C256.617 36.2344 255.172 36.4688 253.5 36.4688ZM290.484 32.9062C291.516 32.9062 292.469 32.6953 293.344 32.2734C294.219 31.8516 294.938 31.2734 295.5 30.5391C296.062 29.7891 296.383 28.9375 296.461 27.9844H300.586C300.508 29.4844 300 30.8828 299.062 32.1797C298.141 33.4609 296.93 34.5 295.43 35.2969C293.93 36.0781 292.281 36.4688 290.484 36.4688C288.578 36.4688 286.914 36.1328 285.492 35.4609C284.086 34.7891 282.914 33.8672 281.977 32.6953C281.055 31.5234 280.359 30.1797 279.891 28.6641C279.438 27.1328 279.211 25.5156 279.211 23.8125V22.8281C279.211 21.125 279.438 19.5156 279.891 18C280.359 16.4688 281.055 15.1172 281.977 13.9453C282.914 12.7734 284.086 11.8516 285.492 11.1797C286.914 10.5078 288.578 10.1719 290.484 10.1719C292.469 10.1719 294.203 10.5781 295.688 11.3906C297.172 12.1875 298.336 13.2812 299.18 14.6719C300.039 16.0469 300.508 17.6094 300.586 19.3594H296.461C296.383 18.3125 296.086 17.3672 295.57 16.5234C295.07 15.6797 294.383 15.0078 293.508 14.5078C292.648 13.9922 291.641 13.7344 290.484 13.7344C289.156 13.7344 288.039 14 287.133 14.5312C286.242 15.0469 285.531 15.75 285 16.6406C284.484 17.5156 284.109 18.4922 283.875 19.5703C283.656 20.6328 283.547 21.7188 283.547 22.8281V23.8125C283.547 24.9219 283.656 26.0156 283.875 27.0938C284.094 28.1719 284.461 29.1484 284.977 30.0234C285.508 30.8984 286.219 31.6016 287.109 32.1328C288.016 32.6484 289.141 32.9062 290.484 32.9062ZM309.797 14.625V36H305.461V10.6406H309.68L309.797 14.625ZM317.719 10.5L317.695 14.5312C317.336 14.4531 316.992 14.4062 316.664 14.3906C316.352 14.3594 315.992 14.3438 315.586 14.3438C314.586 14.3438 313.703 14.5 312.938 14.8125C312.172 15.125 311.523 15.5625 310.992 16.125C310.461 16.6875 310.039 17.3594 309.727 18.1406C309.43 18.9062 309.234 19.75 309.141 20.6719L307.922 21.375C307.922 19.8438 308.07 18.4062 308.367 17.0625C308.68 15.7188 309.156 14.5312 309.797 13.5C310.438 12.4531 311.25 11.6406 312.234 11.0625C313.234 10.4688 314.422 10.1719 315.797 10.1719C316.109 10.1719 316.469 10.2109 316.875 10.2891C317.281 10.3516 317.562 10.4219 317.719 10.5ZM331.781 36.4688C330.016 36.4688 328.414 36.1719 326.977 35.5781C325.555 34.9688 324.328 34.1172 323.297 33.0234C322.281 31.9297 321.5 30.6328 320.953 29.1328C320.406 27.6328 320.133 25.9922 320.133 24.2109V23.2266C320.133 21.1641 320.438 19.3281 321.047 17.7188C321.656 16.0938 322.484 14.7188 323.531 13.5938C324.578 12.4688 325.766 11.6172 327.094 11.0391C328.422 10.4609 329.797 10.1719 331.219 10.1719C333.031 10.1719 334.594 10.4844 335.906 11.1094C337.234 11.7344 338.32 12.6094 339.164 13.7344C340.008 14.8438 340.633 16.1562 341.039 17.6719C341.445 19.1719 341.648 20.8125 341.648 22.5938V24.5391H322.711V21H337.312V20.6719C337.25 19.5469 337.016 18.4531 336.609 17.3906C336.219 16.3281 335.594 15.4531 334.734 14.7656C333.875 14.0781 332.703 13.7344 331.219 13.7344C330.234 13.7344 329.328 13.9453 328.5 14.3672C327.672 14.7734 326.961 15.3828 326.367 16.1953C325.773 17.0078 325.312 18 324.984 19.1719C324.656 20.3438 324.492 21.6953 324.492 23.2266V24.2109C324.492 25.4141 324.656 26.5469 324.984 27.6094C325.328 28.6562 325.82 29.5781 326.461 30.375C327.117 31.1719 327.906 31.7969 328.828 32.25C329.766 32.7031 330.828 32.9297 332.016 32.9297C333.547 32.9297 334.844 32.6172 335.906 31.9922C336.969 31.3672 337.898 30.5312 338.695 29.4844L341.32 31.5703C340.773 32.3984 340.078 33.1875 339.234 33.9375C338.391 34.6875 337.352 35.2969 336.117 35.7656C334.898 36.2344 333.453 36.4688 331.781 36.4688ZM361.664 31.6641V18.6094C361.664 17.6094 361.461 16.7422 361.055 16.0078C360.664 15.2578 360.07 14.6797 359.273 14.2734C358.477 13.8672 357.492 13.6641 356.32 13.6641C355.227 13.6641 354.266 13.8516 353.438 14.2266C352.625 14.6016 351.984 15.0938 351.516 15.7031C351.062 16.3125 350.836 16.9688 350.836 17.6719H346.5C346.5 16.7656 346.734 15.8672 347.203 14.9766C347.672 14.0859 348.344 13.2812 349.219 12.5625C350.109 11.8281 351.172 11.25 352.406 10.8281C353.656 10.3906 355.047 10.1719 356.578 10.1719C358.422 10.1719 360.047 10.4844 361.453 11.1094C362.875 11.7344 363.984 12.6797 364.781 13.9453C365.594 15.1953 366 16.7656 366 18.6562V30.4688C366 31.3125 366.07 32.2109 366.211 33.1641C366.367 34.1172 366.594 34.9375 366.891 35.625V36H362.367C362.148 35.5 361.977 34.8359 361.852 34.0078C361.727 33.1641 361.664 32.3828 361.664 31.6641ZM362.414 20.625L362.461 23.6719H358.078C356.844 23.6719 355.742 23.7734 354.773 23.9766C353.805 24.1641 352.992 24.4531 352.336 24.8438C351.68 25.2344 351.18 25.7266 350.836 26.3203C350.492 26.8984 350.32 27.5781 350.32 28.3594C350.32 29.1562 350.5 29.8828 350.859 30.5391C351.219 31.1953 351.758 31.7188 352.477 32.1094C353.211 32.4844 354.109 32.6719 355.172 32.6719C356.5 32.6719 357.672 32.3906 358.688 31.8281C359.703 31.2656 360.508 30.5781 361.102 29.7656C361.711 28.9531 362.039 28.1641 362.086 27.3984L363.938 29.4844C363.828 30.1406 363.531 30.8672 363.047 31.6641C362.562 32.4609 361.914 33.2266 361.102 33.9609C360.305 34.6797 359.352 35.2812 358.242 35.7656C357.148 36.2344 355.914 36.4688 354.539 36.4688C352.82 36.4688 351.312 36.1328 350.016 35.4609C348.734 34.7891 347.734 33.8906 347.016 32.7656C346.312 31.625 345.961 30.3516 345.961 28.9453C345.961 27.5859 346.227 26.3906 346.758 25.3594C347.289 24.3125 348.055 23.4453 349.055 22.7578C350.055 22.0547 351.258 21.5234 352.664 21.1641C354.07 20.8047 355.641 20.625 357.375 20.625H362.414ZM377.133 15.6797V36H372.773V10.6406H376.898L377.133 15.6797ZM376.242 22.3594L374.227 22.2891C374.242 20.5547 374.469 18.9531 374.906 17.4844C375.344 16 375.992 14.7109 376.852 13.6172C377.711 12.5234 378.781 11.6797 380.062 11.0859C381.344 10.4766 382.828 10.1719 384.516 10.1719C385.703 10.1719 386.797 10.3438 387.797 10.6875C388.797 11.0156 389.664 11.5391 390.398 12.2578C391.133 12.9766 391.703 13.8984 392.109 15.0234C392.516 16.1484 392.719 17.5078 392.719 19.1016V36H388.383V19.3125C388.383 17.9844 388.156 16.9219 387.703 16.125C387.266 15.3281 386.641 14.75 385.828 14.3906C385.016 14.0156 384.062 13.8281 382.969 13.8281C381.688 13.8281 380.617 14.0547 379.758 14.5078C378.898 14.9609 378.211 15.5859 377.695 16.3828C377.18 17.1797 376.805 18.0938 376.57 19.125C376.352 20.1406 376.242 21.2188 376.242 22.3594ZM392.672 19.9688L389.766 20.8594C389.781 19.4688 390.008 18.1328 390.445 16.8516C390.898 15.5703 391.547 14.4297 392.391 13.4297C393.25 12.4297 394.305 11.6406 395.555 11.0625C396.805 10.4688 398.234 10.1719 399.844 10.1719C401.203 10.1719 402.406 10.3516 403.453 10.7109C404.516 11.0703 405.406 11.625 406.125 12.375C406.859 13.1094 407.414 14.0547 407.789 15.2109C408.164 16.3672 408.352 17.7422 408.352 19.3359V36H403.992V19.2891C403.992 17.8672 403.766 16.7656 403.312 15.9844C402.875 15.1875 402.25 14.6328 401.438 14.3203C400.641 13.9922 399.688 13.8281 398.578 13.8281C397.625 13.8281 396.781 13.9922 396.047 14.3203C395.312 14.6484 394.695 15.1016 394.195 15.6797C393.695 16.2422 393.312 16.8906 393.047 17.625C392.797 18.3594 392.672 19.1406 392.672 19.9688ZM13.9219 72.6406V75.9688H0.210938V72.6406H13.9219ZM4.85156 66.4766H9.1875V91.7188C9.1875 92.5781 9.32031 93.2266 9.58594 93.6641C9.85156 94.1016 10.1953 94.3906 10.6172 94.5312C11.0391 94.6719 11.4922 94.7422 11.9766 94.7422C12.3359 94.7422 12.7109 94.7109 13.1016 94.6484C13.5078 94.5703 13.8125 94.5078 14.0156 94.4609L14.0391 98C13.6953 98.1094 13.2422 98.2109 12.6797 98.3047C12.1328 98.4141 11.4688 98.4688 10.6875 98.4688C9.625 98.4688 8.64844 98.2578 7.75781 97.8359C6.86719 97.4141 6.15625 96.7109 5.625 95.7266C5.10938 94.7266 4.85156 93.3828 4.85156 91.6953V66.4766ZM23.3438 62V98H19.0078V62H23.3438ZM22.3125 84.3594L20.5078 84.2891C20.5234 82.5547 20.7812 80.9531 21.2812 79.4844C21.7812 78 22.4844 76.7109 23.3906 75.6172C24.2969 74.5234 25.375 73.6797 26.625 73.0859C27.8906 72.4766 29.2891 72.1719 30.8203 72.1719C32.0703 72.1719 33.1953 72.3438 34.1953 72.6875C35.1953 73.0156 36.0469 73.5469 36.75 74.2812C37.4688 75.0156 38.0156 75.9688 38.3906 77.1406C38.7656 78.2969 38.9531 79.7109 38.9531 81.3828V98H34.5938V81.3359C34.5938 80.0078 34.3984 78.9453 34.0078 78.1484C33.6172 77.3359 33.0469 76.75 32.2969 76.3906C31.5469 76.0156 30.625 75.8281 29.5312 75.8281C28.4531 75.8281 27.4688 76.0547 26.5781 76.5078C25.7031 76.9609 24.9453 77.5859 24.3047 78.3828C23.6797 79.1797 23.1875 80.0938 22.8281 81.125C22.4844 82.1406 22.3125 83.2188 22.3125 84.3594ZM55.9688 98.4688C54.2031 98.4688 52.6016 98.1719 51.1641 97.5781C49.7422 96.9688 48.5156 96.1172 47.4844 95.0234C46.4688 93.9297 45.6875 92.6328 45.1406 91.1328C44.5938 89.6328 44.3203 87.9922 44.3203 86.2109V85.2266C44.3203 83.1641 44.625 81.3281 45.2344 79.7188C45.8438 78.0938 46.6719 76.7188 47.7188 75.5938C48.7656 74.4688 49.9531 73.6172 51.2812 73.0391C52.6094 72.4609 53.9844 72.1719 55.4062 72.1719C57.2188 72.1719 58.7812 72.4844 60.0938 73.1094C61.4219 73.7344 62.5078 74.6094 63.3516 75.7344C64.1953 76.8438 64.8203 78.1562 65.2266 79.6719C65.6328 81.1719 65.8359 82.8125 65.8359 84.5938V86.5391H46.8984V83H61.5V82.6719C61.4375 81.5469 61.2031 80.4531 60.7969 79.3906C60.4062 78.3281 59.7812 77.4531 58.9219 76.7656C58.0625 76.0781 56.8906 75.7344 55.4062 75.7344C54.4219 75.7344 53.5156 75.9453 52.6875 76.3672C51.8594 76.7734 51.1484 77.3828 50.5547 78.1953C49.9609 79.0078 49.5 80 49.1719 81.1719C48.8438 82.3438 48.6797 83.6953 48.6797 85.2266V86.2109C48.6797 87.4141 48.8438 88.5469 49.1719 89.6094C49.5156 90.6562 50.0078 91.5781 50.6484 92.375C51.3047 93.1719 52.0938 93.7969 53.0156 94.25C53.9531 94.7031 55.0156 94.9297 56.2031 94.9297C57.7344 94.9297 59.0312 94.6172 60.0938 93.9922C61.1562 93.3672 62.0859 92.5312 62.8828 91.4844L65.5078 93.5703C64.9609 94.3984 64.2656 95.1875 63.4219 95.9375C62.5781 96.6875 61.5391 97.2969 60.3047 97.7656C59.0859 98.2344 57.6406 98.4688 55.9688 98.4688ZM89.2266 93.5L95.7422 72.6406H98.6016L98.0391 76.7891L91.4062 98H88.6172L89.2266 93.5ZM84.8438 72.6406L90.3984 93.7344L90.7969 98H87.8672L80.5078 72.6406H84.8438ZM104.836 93.5703L110.133 72.6406H114.445L107.086 98H104.18L104.836 93.5703ZM99.2344 72.6406L105.609 93.1484L106.336 98H103.57L96.75 76.7422L96.1875 72.6406H99.2344ZM133.852 93.6641V80.6094C133.852 79.6094 133.648 78.7422 133.242 78.0078C132.852 77.2578 132.258 76.6797 131.461 76.2734C130.664 75.8672 129.68 75.6641 128.508 75.6641C127.414 75.6641 126.453 75.8516 125.625 76.2266C124.812 76.6016 124.172 77.0938 123.703 77.7031C123.25 78.3125 123.023 78.9688 123.023 79.6719H118.688C118.688 78.7656 118.922 77.8672 119.391 76.9766C119.859 76.0859 120.531 75.2812 121.406 74.5625C122.297 73.8281 123.359 73.25 124.594 72.8281C125.844 72.3906 127.234 72.1719 128.766 72.1719C130.609 72.1719 132.234 72.4844 133.641 73.1094C135.062 73.7344 136.172 74.6797 136.969 75.9453C137.781 77.1953 138.188 78.7656 138.188 80.6562V92.4688C138.188 93.3125 138.258 94.2109 138.398 95.1641C138.555 96.1172 138.781 96.9375 139.078 97.625V98H134.555C134.336 97.5 134.164 96.8359 134.039 96.0078C133.914 95.1641 133.852 94.3828 133.852 93.6641ZM134.602 82.625L134.648 85.6719H130.266C129.031 85.6719 127.93 85.7734 126.961 85.9766C125.992 86.1641 125.18 86.4531 124.523 86.8438C123.867 87.2344 123.367 87.7266 123.023 88.3203C122.68 88.8984 122.508 89.5781 122.508 90.3594C122.508 91.1562 122.688 91.8828 123.047 92.5391C123.406 93.1953 123.945 93.7188 124.664 94.1094C125.398 94.4844 126.297 94.6719 127.359 94.6719C128.688 94.6719 129.859 94.3906 130.875 93.8281C131.891 93.2656 132.695 92.5781 133.289 91.7656C133.898 90.9531 134.227 90.1641 134.273 89.3984L136.125 91.4844C136.016 92.1406 135.719 92.8672 135.234 93.6641C134.75 94.4609 134.102 95.2266 133.289 95.9609C132.492 96.6797 131.539 97.2812 130.43 97.7656C129.336 98.2344 128.102 98.4688 126.727 98.4688C125.008 98.4688 123.5 98.1328 122.203 97.4609C120.922 96.7891 119.922 95.8906 119.203 94.7656C118.5 93.625 118.148 92.3516 118.148 90.9453C118.148 89.5859 118.414 88.3906 118.945 87.3594C119.477 86.3125 120.242 85.4453 121.242 84.7578C122.242 84.0547 123.445 83.5234 124.852 83.1641C126.258 82.8047 127.828 82.625 129.562 82.625H134.602ZM151.758 95.375L158.812 72.6406H163.453L153.281 101.914C153.047 102.539 152.734 103.211 152.344 103.93C151.969 104.664 151.484 105.359 150.891 106.016C150.297 106.672 149.578 107.203 148.734 107.609C147.906 108.031 146.914 108.242 145.758 108.242C145.414 108.242 144.977 108.195 144.445 108.102C143.914 108.008 143.539 107.93 143.32 107.867L143.297 104.352C143.422 104.367 143.617 104.383 143.883 104.398C144.164 104.43 144.359 104.445 144.469 104.445C145.453 104.445 146.289 104.312 146.977 104.047C147.664 103.797 148.242 103.367 148.711 102.758C149.195 102.164 149.609 101.344 149.953 100.297L151.758 95.375ZM146.578 72.6406L153.164 92.3281L154.289 96.8984L151.172 98.4922L141.844 72.6406H146.578ZM183.984 72.6406V98H179.625V72.6406H183.984ZM179.297 65.9141C179.297 65.2109 179.508 64.6172 179.93 64.1328C180.367 63.6484 181.008 63.4062 181.852 63.4062C182.68 63.4062 183.312 63.6484 183.75 64.1328C184.203 64.6172 184.43 65.2109 184.43 65.9141C184.43 66.5859 184.203 67.1641 183.75 67.6484C183.312 68.1172 182.68 68.3516 181.852 68.3516C181.008 68.3516 180.367 68.1172 179.93 67.6484C179.508 67.1641 179.297 66.5859 179.297 65.9141ZM201.562 72.6406V75.9688H187.852V72.6406H201.562ZM192.492 66.4766H196.828V91.7188C196.828 92.5781 196.961 93.2266 197.227 93.6641C197.492 94.1016 197.836 94.3906 198.258 94.5312C198.68 94.6719 199.133 94.7422 199.617 94.7422C199.977 94.7422 200.352 94.7109 200.742 94.6484C201.148 94.5703 201.453 94.5078 201.656 94.4609L201.68 98C201.336 98.1094 200.883 98.2109 200.32 98.3047C199.773 98.4141 199.109 98.4688 198.328 98.4688C197.266 98.4688 196.289 98.2578 195.398 97.8359C194.508 97.4141 193.797 96.7109 193.266 95.7266C192.75 94.7266 192.492 93.3828 192.492 91.6953V66.4766ZM234.07 92.1406V72.6406H238.43V98H234.281L234.07 92.1406ZM234.891 86.7969L236.695 86.75C236.695 88.4375 236.516 90 236.156 91.4375C235.812 92.8594 235.25 94.0938 234.469 95.1406C233.688 96.1875 232.664 97.0078 231.398 97.6016C230.133 98.1797 228.594 98.4688 226.781 98.4688C225.547 98.4688 224.414 98.2891 223.383 97.9297C222.367 97.5703 221.492 97.0156 220.758 96.2656C220.023 95.5156 219.453 94.5391 219.047 93.3359C218.656 92.1328 218.461 90.6875 218.461 89V72.6406H222.797V89.0469C222.797 90.1875 222.922 91.1328 223.172 91.8828C223.438 92.6172 223.789 93.2031 224.227 93.6406C224.68 94.0625 225.18 94.3594 225.727 94.5312C226.289 94.7031 226.867 94.7891 227.461 94.7891C229.305 94.7891 230.766 94.4375 231.844 93.7344C232.922 93.0156 233.695 92.0547 234.164 90.8516C234.648 89.6328 234.891 88.2812 234.891 86.7969ZM259.805 91.2734C259.805 90.6484 259.664 90.0703 259.383 89.5391C259.117 88.9922 258.562 88.5 257.719 88.0625C256.891 87.6094 255.641 87.2188 253.969 86.8906C252.562 86.5938 251.289 86.2422 250.148 85.8359C249.023 85.4297 248.062 84.9375 247.266 84.3594C246.484 83.7812 245.883 83.1016 245.461 82.3203C245.039 81.5391 244.828 80.625 244.828 79.5781C244.828 78.5781 245.047 77.6328 245.484 76.7422C245.938 75.8516 246.57 75.0625 247.383 74.375C248.211 73.6875 249.203 73.1484 250.359 72.7578C251.516 72.3672 252.805 72.1719 254.227 72.1719C256.258 72.1719 257.992 72.5312 259.43 73.25C260.867 73.9688 261.969 74.9297 262.734 76.1328C263.5 77.3203 263.883 78.6406 263.883 80.0938H259.547C259.547 79.3906 259.336 78.7109 258.914 78.0547C258.508 77.3828 257.906 76.8281 257.109 76.3906C256.328 75.9531 255.367 75.7344 254.227 75.7344C253.023 75.7344 252.047 75.9219 251.297 76.2969C250.562 76.6562 250.023 77.1172 249.68 77.6797C249.352 78.2422 249.188 78.8359 249.188 79.4609C249.188 79.9297 249.266 80.3516 249.422 80.7266C249.594 81.0859 249.891 81.4219 250.312 81.7344C250.734 82.0312 251.328 82.3125 252.094 82.5781C252.859 82.8438 253.836 83.1094 255.023 83.375C257.102 83.8438 258.812 84.4062 260.156 85.0625C261.5 85.7188 262.5 86.5234 263.156 87.4766C263.812 88.4297 264.141 89.5859 264.141 90.9453C264.141 92.0547 263.906 93.0703 263.438 93.9922C262.984 94.9141 262.32 95.7109 261.445 96.3828C260.586 97.0391 259.555 97.5547 258.352 97.9297C257.164 98.2891 255.828 98.4688 254.344 98.4688C252.109 98.4688 250.219 98.0703 248.672 97.2734C247.125 96.4766 245.953 95.4453 245.156 94.1797C244.359 92.9141 243.961 91.5781 243.961 90.1719H248.32C248.383 91.3594 248.727 92.3047 249.352 93.0078C249.977 93.6953 250.742 94.1875 251.648 94.4844C252.555 94.7656 253.453 94.9062 254.344 94.9062C255.531 94.9062 256.523 94.75 257.32 94.4375C258.133 94.125 258.75 93.6953 259.172 93.1484C259.594 92.6016 259.805 91.9766 259.805 91.2734ZM280.359 98.4688C278.594 98.4688 276.992 98.1719 275.555 97.5781C274.133 96.9688 272.906 96.1172 271.875 95.0234C270.859 93.9297 270.078 92.6328 269.531 91.1328C268.984 89.6328 268.711 87.9922 268.711 86.2109V85.2266C268.711 83.1641 269.016 81.3281 269.625 79.7188C270.234 78.0938 271.062 76.7188 272.109 75.5938C273.156 74.4688 274.344 73.6172 275.672 73.0391C277 72.4609 278.375 72.1719 279.797 72.1719C281.609 72.1719 283.172 72.4844 284.484 73.1094C285.812 73.7344 286.898 74.6094 287.742 75.7344C288.586 76.8438 289.211 78.1562 289.617 79.6719C290.023 81.1719 290.227 82.8125 290.227 84.5938V86.5391H271.289V83H285.891V82.6719C285.828 81.5469 285.594 80.4531 285.188 79.3906C284.797 78.3281 284.172 77.4531 283.312 76.7656C282.453 76.0781 281.281 75.7344 279.797 75.7344C278.812 75.7344 277.906 75.9453 277.078 76.3672C276.25 76.7734 275.539 77.3828 274.945 78.1953C274.352 79.0078 273.891 80 273.562 81.1719C273.234 82.3438 273.07 83.6953 273.07 85.2266V86.2109C273.07 87.4141 273.234 88.5469 273.562 89.6094C273.906 90.6562 274.398 91.5781 275.039 92.375C275.695 93.1719 276.484 93.7969 277.406 94.25C278.344 94.7031 279.406 94.9297 280.594 94.9297C282.125 94.9297 283.422 94.6172 284.484 93.9922C285.547 93.3672 286.477 92.5312 287.273 91.4844L289.898 93.5703C289.352 94.3984 288.656 95.1875 287.812 95.9375C286.969 96.6875 285.93 97.2969 284.695 97.7656C283.477 98.2344 282.031 98.4688 280.359 98.4688ZM311.273 93.0781V62H315.633V98H311.648L311.273 93.0781ZM294.211 85.6016V85.1094C294.211 83.1719 294.445 81.4141 294.914 79.8359C295.398 78.2422 296.078 76.875 296.953 75.7344C297.844 74.5938 298.898 73.7188 300.117 73.1094C301.352 72.4844 302.727 72.1719 304.242 72.1719C305.836 72.1719 307.227 72.4531 308.414 73.0156C309.617 73.5625 310.633 74.3672 311.461 75.4297C312.305 76.4766 312.969 77.7422 313.453 79.2266C313.938 80.7109 314.273 82.3906 314.461 84.2656V86.4219C314.289 88.2812 313.953 89.9531 313.453 91.4375C312.969 92.9219 312.305 94.1875 311.461 95.2344C310.633 96.2812 309.617 97.0859 308.414 97.6484C307.211 98.1953 305.805 98.4688 304.195 98.4688C302.711 98.4688 301.352 98.1484 300.117 97.5078C298.898 96.8672 297.844 95.9688 296.953 94.8125C296.078 93.6562 295.398 92.2969 294.914 90.7344C294.445 89.1562 294.211 87.4453 294.211 85.6016ZM298.57 85.1094V85.6016C298.57 86.8672 298.695 88.0547 298.945 89.1641C299.211 90.2734 299.617 91.25 300.164 92.0938C300.711 92.9375 301.406 93.6016 302.25 94.0859C303.094 94.5547 304.102 94.7891 305.273 94.7891C306.711 94.7891 307.891 94.4844 308.812 93.875C309.75 93.2656 310.5 92.4609 311.062 91.4609C311.625 90.4609 312.062 89.375 312.375 88.2031V82.5547C312.188 81.6953 311.914 80.8672 311.555 80.0703C311.211 79.2578 310.758 78.5391 310.195 77.9141C309.648 77.2734 308.969 76.7656 308.156 76.3906C307.359 76.0156 306.414 75.8281 305.32 75.8281C304.133 75.8281 303.109 76.0781 302.25 76.5781C301.406 77.0625 300.711 77.7344 300.164 78.5938C299.617 79.4375 299.211 80.4219 298.945 81.5469C298.695 82.6562 298.57 83.8438 298.57 85.1094ZM344.906 72.6406V75.9688H331.195V72.6406H344.906ZM335.836 66.4766H340.172V91.7188C340.172 92.5781 340.305 93.2266 340.57 93.6641C340.836 94.1016 341.18 94.3906 341.602 94.5312C342.023 94.6719 342.477 94.7422 342.961 94.7422C343.32 94.7422 343.695 94.7109 344.086 94.6484C344.492 94.5703 344.797 94.5078 345 94.4609L345.023 98C344.68 98.1094 344.227 98.2109 343.664 98.3047C343.117 98.4141 342.453 98.4688 341.672 98.4688C340.609 98.4688 339.633 98.2578 338.742 97.8359C337.852 97.4141 337.141 96.7109 336.609 95.7266C336.094 94.7266 335.836 93.3828 335.836 91.6953V66.4766ZM348.375 85.6016V85.0625C348.375 83.2344 348.641 81.5391 349.172 79.9766C349.703 78.3984 350.469 77.0312 351.469 75.875C352.469 74.7031 353.68 73.7969 355.102 73.1562C356.523 72.5 358.117 72.1719 359.883 72.1719C361.664 72.1719 363.266 72.5 364.688 73.1562C366.125 73.7969 367.344 74.7031 368.344 75.875C369.359 77.0312 370.133 78.3984 370.664 79.9766C371.195 81.5391 371.461 83.2344 371.461 85.0625V85.6016C371.461 87.4297 371.195 89.125 370.664 90.6875C370.133 92.25 369.359 93.6172 368.344 94.7891C367.344 95.9453 366.133 96.8516 364.711 97.5078C363.305 98.1484 361.711 98.4688 359.93 98.4688C358.148 98.4688 356.547 98.1484 355.125 97.5078C353.703 96.8516 352.484 95.9453 351.469 94.7891C350.469 93.6172 349.703 92.25 349.172 90.6875C348.641 89.125 348.375 87.4297 348.375 85.6016ZM352.711 85.0625V85.6016C352.711 86.8672 352.859 88.0625 353.156 89.1875C353.453 90.2969 353.898 91.2812 354.492 92.1406C355.102 93 355.859 93.6797 356.766 94.1797C357.672 94.6641 358.727 94.9062 359.93 94.9062C361.117 94.9062 362.156 94.6641 363.047 94.1797C363.953 93.6797 364.703 93 365.297 92.1406C365.891 91.2812 366.336 90.2969 366.633 89.1875C366.945 88.0625 367.102 86.8672 367.102 85.6016V85.0625C367.102 83.8125 366.945 82.6328 366.633 81.5234C366.336 80.3984 365.883 79.4062 365.273 78.5469C364.68 77.6719 363.93 76.9844 363.023 76.4844C362.133 75.9844 361.086 75.7344 359.883 75.7344C358.695 75.7344 357.648 75.9844 356.742 76.4844C355.852 76.9844 355.102 77.6719 354.492 78.5469C353.898 79.4062 353.453 80.3984 353.156 81.5234C352.859 82.6328 352.711 83.8125 352.711 85.0625ZM3.28125 124H7.64062V155.078L7.26562 160H3.28125V124ZM24.7734 147.109V147.602C24.7734 149.445 24.5547 151.156 24.1172 152.734C23.6797 154.297 23.0391 155.656 22.1953 156.812C21.3516 157.969 20.3203 158.867 19.1016 159.508C17.8828 160.148 16.4844 160.469 14.9062 160.469C13.2969 160.469 11.8828 160.195 10.6641 159.648C9.46094 159.086 8.44531 158.281 7.61719 157.234C6.78906 156.188 6.125 154.922 5.625 153.438C5.14062 151.953 4.80469 150.281 4.61719 148.422V146.266C4.80469 144.391 5.14062 142.711 5.625 141.227C6.125 139.742 6.78906 138.477 7.61719 137.43C8.44531 136.367 9.46094 135.562 10.6641 135.016C11.8672 134.453 13.2656 134.172 14.8594 134.172C16.4531 134.172 17.8672 134.484 19.1016 135.109C20.3359 135.719 21.3672 136.594 22.1953 137.734C23.0391 138.875 23.6797 140.242 24.1172 141.836C24.5547 143.414 24.7734 145.172 24.7734 147.109ZM20.4141 147.602V147.109C20.4141 145.844 20.2969 144.656 20.0625 143.547C19.8281 142.422 19.4531 141.438 18.9375 140.594C18.4219 139.734 17.7422 139.062 16.8984 138.578C16.0547 138.078 15.0156 137.828 13.7812 137.828C12.6875 137.828 11.7344 138.016 10.9219 138.391C10.125 138.766 9.44531 139.273 8.88281 139.914C8.32031 140.539 7.85938 141.258 7.5 142.07C7.15625 142.867 6.89844 143.695 6.72656 144.555V150.203C6.97656 151.297 7.38281 152.352 7.94531 153.367C8.52344 154.367 9.28906 155.188 10.2422 155.828C11.2109 156.469 12.4062 156.789 13.8281 156.789C15 156.789 16 156.555 16.8281 156.086C17.6719 155.602 18.3516 154.938 18.8672 154.094C19.3984 153.25 19.7891 152.273 20.0391 151.164C20.2891 150.055 20.4141 148.867 20.4141 147.602ZM40.7812 160.469C39.0156 160.469 37.4141 160.172 35.9766 159.578C34.5547 158.969 33.3281 158.117 32.2969 157.023C31.2812 155.93 30.5 154.633 29.9531 153.133C29.4062 151.633 29.1328 149.992 29.1328 148.211V147.227C29.1328 145.164 29.4375 143.328 30.0469 141.719C30.6562 140.094 31.4844 138.719 32.5312 137.594C33.5781 136.469 34.7656 135.617 36.0938 135.039C37.4219 134.461 38.7969 134.172 40.2188 134.172C42.0312 134.172 43.5938 134.484 44.9062 135.109C46.2344 135.734 47.3203 136.609 48.1641 137.734C49.0078 138.844 49.6328 140.156 50.0391 141.672C50.4453 143.172 50.6484 144.812 50.6484 146.594V148.539H31.7109V145H46.3125V144.672C46.25 143.547 46.0156 142.453 45.6094 141.391C45.2188 140.328 44.5938 139.453 43.7344 138.766C42.875 138.078 41.7031 137.734 40.2188 137.734C39.2344 137.734 38.3281 137.945 37.5 138.367C36.6719 138.773 35.9609 139.383 35.3672 140.195C34.7734 141.008 34.3125 142 33.9844 143.172C33.6562 144.344 33.4922 145.695 33.4922 147.227V148.211C33.4922 149.414 33.6562 150.547 33.9844 151.609C34.3281 152.656 34.8203 153.578 35.4609 154.375C36.1172 155.172 36.9062 155.797 37.8281 156.25C38.7656 156.703 39.8281 156.93 41.0156 156.93C42.5469 156.93 43.8438 156.617 44.9062 155.992C45.9688 155.367 46.8984 154.531 47.6953 153.484L50.3203 155.57C49.7734 156.398 49.0781 157.188 48.2344 157.938C47.3906 158.688 46.3516 159.297 45.1172 159.766C43.8984 160.234 42.4531 160.469 40.7812 160.469ZM55.7812 157.703C55.7812 156.969 56.0078 156.352 56.4609 155.852C56.9297 155.336 57.6016 155.078 58.4766 155.078C59.3516 155.078 60.0156 155.336 60.4688 155.852C60.9375 156.352 61.1719 156.969 61.1719 157.703C61.1719 158.422 60.9375 159.031 60.4688 159.531C60.0156 160.031 59.3516 160.281 58.4766 160.281C57.6016 160.281 56.9297 160.031 56.4609 159.531C56.0078 159.031 55.7812 158.422 55.7812 157.703Z" fill="#ECE9E9"/>
</svg>
